<svg xmlns="http://www.w3.org/2000/svg" viewBox="0 0 1200 720">
  <rect width="1200" height="720" fill="#f4efe6"/>
  <rect x="34" y="30" width="1132" height="660" rx="28" fill="#fbf8f1" stroke="#d6c9b2"/>
  <text x="74" y="86" fill="#23313a" font-size="34" font-family="Arial">Echo // Narrative Research Board</text>
  <text x="74" y="118" fill="#6f7c83" font-size="16" font-family="Arial">durability, contradiction, author quality, evidence lanes</text>

  <rect x="70" y="154" width="238" height="488" rx="22" fill="#f7f2e7" stroke="#d8cab4"/>
  <text x="96" y="190" fill="#31424d" font-size="18" font-family="Arial">Emerging</text>
  <rect x="92" y="214" width="194" height="112" rx="18" fill="#ffffff" stroke="#d9e2d6"/>
  <text x="112" y="248" fill="#46545d" font-size="16" font-family="Arial">BONK liquidity rotation</text>
  <text x="112" y="280" fill="#6f7c83" font-size="14" font-family="Arial">durability 0.48 | 6 authors</text>
  <rect x="92" y="344" width="194" height="112" rx="18" fill="#ffffff" stroke="#d9e2d6"/>
  <text x="112" y="378" fill="#46545d" font-size="16" font-family="Arial">JTO validator fee talk</text>
  <text x="112" y="410" fill="#6f7c83" font-size="14" font-family="Arial">durability 0.44 | evidence building</text>

  <rect x="328" y="154" width="238" height="488" rx="22" fill="#eef6ef" stroke="#c6d7c7"/>
  <text x="354" y="190" fill="#31424d" font-size="18" font-family="Arial">Confirmed</text>
  <rect x="350" y="214" width="194" height="132" rx="18" fill="#ffffff" stroke="#cde0cf"/>
  <text x="370" y="248" fill="#46545d" font-size="16" font-family="Arial">SOL MEV fee compression</text>
  <text x="370" y="280" fill="#6f7c83" font-size="14" font-family="Arial">durability 0.71 | credibility 0.78</text>
  <text x="370" y="308" fill="#2f7a58" font-size="13" font-family="Arial">3 independent desks repeated it</text>
  <rect x="350" y="366" width="194" height="132" rx="18" fill="#ffffff" stroke="#cde0cf"/>
  <text x="370" y="400" fill="#46545d" font-size="16" font-family="Arial">WIF exchange inflow fade</text>
  <text x="370" y="432" fill="#6f7c83" font-size="13" font-family="Arial">durability 0.63 | live for 4 windows</text>

  <rect x="586" y="154" width="238" height="488" rx="22" fill="#fbf0ec" stroke="#e3c8be"/>
  <text x="612" y="190" fill="#31424d" font-size="18" font-family="Arial">Contested</text>
  <rect x="608" y="214" width="194" height="132" rx="18" fill="#ffffff" stroke="#e4d0c6"/>
  <text x="628" y="248" fill="#46545d" font-size="16" font-family="Arial">POPCAT breakout claim</text>
  <text x="628" y="280" fill="#6f7c83" font-size="14" font-family="Arial">contradiction 0.49 | durability 0.41</text>
  <text x="628" y="308" fill="#c1684d" font-size="13" font-family="Arial">bullish call meets unlock pushback</text>
  <rect x="608" y="366" width="194" height="132" rx="18" fill="#ffffff" stroke="#e4d0c6"/>
  <text x="628" y="400" fill="#46545d" font-size="16" font-family="Arial">JUP fee switch debate</text>
  <text x="628" y="432" fill="#6f7c83" font-size="13" font-family="Arial">split claim across governance voices</text>

  <rect x="844" y="154" width="286" height="488" rx="22" fill="#f5f5f1" stroke="#d8d8cf"/>
  <text x="870" y="190" fill="#31424d" font-size="18" font-family="Arial">Evidence Rail</text>
  <text x="870" y="236" fill="#6f7c83" font-size="14" font-family="Arial">Author quality</text>
  <rect x="870" y="248" width="210" height="18" rx="9" fill="#dfe6ea"/>
  <rect x="870" y="248" width="162" height="18" rx="9" fill="#7ea17e"/>
  <text x="1092" y="262" fill="#2f7a58" font-size="13" font-family="Arial">0.77</text>
  <text x="870" y="302" fill="#6f7c83" font-size="14" font-family="Arial">Source diversity</text>
  <rect x="870" y="314" width="210" height="18" rx="9" fill="#dfe6ea"/>
  <rect x="870" y="314" width="144" height="18" rx="9" fill="#6698a8"/>
  <text x="1092" y="328" fill="#37687a" font-size="13" font-family="Arial">0.68</text>
  <text x="870" y="368" fill="#6f7c83" font-size="14" font-family="Arial">Persistence</text>
  <rect x="870" y="380" width="210" height="18" rx="9" fill="#dfe6ea"/>
  <rect x="870" y="380" width="128" height="18" rx="9" fill="#d8aa5b"/>
  <text x="1092" y="394" fill="#9b6a17" font-size="13" font-family="Arial">0.61</text>
  <text x="870" y="434" fill="#6f7c83" font-size="14" font-family="Arial">Contradiction ratio</text>
  <rect x="870" y="446" width="210" height="18" rx="9" fill="#dfe6ea"/>
  <rect x="870" y="446" width="86" height="18" rx="9" fill="#cd7c65"/>
  <text x="1092" y="460" fill="#b25139" font-size="13" font-family="Arial">0.41</text>
  <text x="870" y="520" fill="#46545d" font-size="15" font-family="Arial">Action</text>
  <text x="870" y="554" fill="#23313a" font-size="14" font-family="Arial">Lean into SOL fee compression.</text>
  <text x="870" y="582" fill="#23313a" font-size="14" font-family="Arial">Fade POPCAT until the split clears.</text>
</svg>
