<svg width="720" height="440" viewBox="0 0 720 440" xmlns="http://www.w3.org/2000/svg" font-family="'Cascadia Code','Fira Code','Courier New',monospace">
  <rect width="720" height="440" rx="10" fill="#080810"/>
  <rect width="720" height="48" rx="10" fill="#0e0e1c"/>
  <rect y="32" width="720" height="16" fill="#0e0e1c"/>
  <text x="20" y="30" fill="#a78bfa" font-size="16" font-weight="bold">◈ ECHO</text>
  <text x="74" y="30" fill="#555" font-size="12">CT sentiment intelligence</text>
  <text x="512" y="30" fill="#27c93f" font-size="11">● SCANNING</text>
  <text x="590" y="30" fill="#555" font-size="11">7 tokens tracked</text>

  <!-- stats row -->
  <rect x="16" y="64" width="154" height="64" rx="6" fill="#0d0d1e" stroke="#1e1e3a" stroke-width="1"/>
  <text x="28" y="82" fill="#555" font-size="10">TWEETS (15m)</text>
  <text x="28" y="108" fill="#e0e0e0" font-size="26" font-weight="bold">2,841</text>

  <rect x="182" y="64" width="154" height="64" rx="6" fill="#0d0d1e" stroke="#1e1e3a" stroke-width="1"/>
  <text x="194" y="82" fill="#555" font-size="10">SIGNALS FIRED</text>
  <text x="194" y="108" fill="#a78bfa" font-size="26" font-weight="bold">7</text>

  <rect x="348" y="64" width="154" height="64" rx="6" fill="#0d0d1e" stroke="#1e1e3a" stroke-width="1"/>
  <text x="360" y="82" fill="#555" font-size="10">BULLISH / BEARISH</text>
  <text x="360" y="108" fill="#e0e0e0" font-size="26" font-weight="bold">5 / 2</text>

  <rect x="514" y="64" width="190" height="64" rx="6" fill="#0d0d1e" stroke="#1e1e3a" stroke-width="1"/>
  <text x="526" y="82" fill="#555" font-size="10">TOP NARRATIVE</text>
  <text x="526" y="102" fill="#a78bfa" font-size="13">AI agents</text>
  <text x="526" y="120" fill="#555" font-size="11">▲ accelerating</text>

  <!-- sentiment leaderboard -->
  <text x="20" y="154" fill="#444" font-size="10">SENTIMENT LEADERBOARD</text>
  <rect x="16" y="160" width="688" height="1" fill="#1a1a2e"/>

  <!-- header row -->
  <text x="28" y="178" fill="#444" font-size="10">TOKEN</text>
  <text x="110" y="178" fill="#444" font-size="10">SENTIMENT</text>
  <text x="220" y="178" fill="#444" font-size="10">SCORE</text>
  <text x="290" y="178" fill="#444" font-size="10">CONF</text>
  <text x="360" y="178" fill="#444" font-size="10">MOMENTUM</text>
  <text x="460" y="178" fill="#444" font-size="10">ACTION HINT</text>

  <!-- SOL row -->
  <rect x="16" y="184" width="688" height="32" rx="3" fill="#0d1a0d"/>
  <text x="28" y="204" fill="#27c93f" font-size="12" font-weight="bold">SOL</text>
  <text x="110" y="204" fill="#27c93f" font-size="11">bullish</text>
  <text x="220" y="204" fill="#e0e0e0" font-size="11">82/100</text>
  <text x="290" y="204" fill="#aaa" font-size="11">0.87</text>
  <text x="360" y="204" fill="#27c93f" font-size="11">▲ accelerating</text>
  <text x="460" y="204" fill="#aaa" font-size="10">Strong accumulation signal, watch $180 resistance</text>

  <!-- JTO row -->
  <rect x="16" y="220" width="688" height="32" rx="3" fill="#111120"/>
  <text x="28" y="240" fill="#a78bfa" font-size="12" font-weight="bold">JTO</text>
  <text x="110" y="240" fill="#ffbd2e" font-size="11">hype</text>
  <text x="220" y="240" fill="#e0e0e0" font-size="11">74/100</text>
  <text x="290" y="240" fill="#aaa" font-size="11">0.79</text>
  <text x="360" y="240" fill="#ffbd2e" font-size="11">▲ accelerating</text>
  <text x="460" y="240" fill="#aaa" font-size="10">CT momentum high but possible blow-off top — take profit zone</text>

  <!-- BONK row -->
  <rect x="16" y="256" width="688" height="32" rx="3" fill="#0d1a0d"/>
  <text x="28" y="276" fill="#27c93f" font-size="12" font-weight="bold">BONK</text>
  <text x="110" y="276" fill="#27c93f" font-size="11">bullish</text>
  <text x="220" y="276" fill="#e0e0e0" font-size="11">68/100</text>
  <text x="290" y="276" fill="#aaa" font-size="11">0.71</text>
  <text x="360" y="276" fill="#aaa" font-size="11">→ stable</text>
  <text x="460" y="276" fill="#aaa" font-size="10">Steady accumulation from mid-size accounts, no major sells</text>

  <!-- WIF row -->
  <rect x="16" y="292" width="688" height="32" rx="3" fill="#111120"/>
  <text x="28" y="312" fill="#e0e0e0" font-size="12" font-weight="bold">WIF</text>
  <text x="110" y="312" fill="#aaa" font-size="11">neutral</text>
  <text x="220" y="312" fill="#e0e0e0" font-size="11">51/100</text>
  <text x="290" y="312" fill="#aaa" font-size="11">0.62</text>
  <text x="360" y="312" fill="#aaa" font-size="11">→ stable</text>
  <text x="460" y="312" fill="#aaa" font-size="10">No clear direction — mixed CT, wait for clarity</text>

  <!-- RAY row -->
  <rect x="16" y="328" width="688" height="32" rx="3" fill="#1a0808"/>
  <text x="28" y="348" fill="#e05c5c" font-size="12" font-weight="bold">RAY</text>
  <text x="110" y="348" fill="#e05c5c" font-size="11">bearish</text>
  <text x="220" y="348" fill="#e0e0e0" font-size="11">31/100</text>
  <text x="290" y="348" fill="#aaa" font-size="11">0.74</text>
  <text x="360" y="348" fill="#e05c5c" font-size="11">▼ decelerating</text>
  <text x="460" y="348" fill="#aaa" font-size="10">Unlock FUD spreading from credible accounts — avoid</text>

  <!-- footer -->
  <rect x="0" y="410" width="720" height="30" rx="4" fill="#080810"/>
  <text x="20" y="428" fill="#333" font-size="10">scanning every 15min · twitter v2 api · mock data when no bearer token</text>
  <text x="680" y="428" fill="#333" font-size="10">v0.1.0</text>
</svg>
